<?xml version="1.0" encoding="UTF-8"?>
<svg xmlns="http://www.w3.org/2000/svg" xmlns:xlink="http://www.w3.org/1999/xlink" viewBox="0 0 50 50" width="50px" height="50px">
<g id="surface40912662">
<rect x="0" y="0" width="50" height="50" style="fill:rgb(20%,20%,20%);fill-opacity:1;stroke:none;"/>
<path style=" stroke:none;fill-rule:nonzero;fill:rgb(100%,100%,100%);fill-opacity:1;" d="M 24.960938 2 C 24.839844 1.996094 24.71875 2.015625 24.605469 2.054688 L 3.671875 9.339844 C 3.226562 9.496094 2.949219 9.9375 3.007812 10.40625 L 6.316406 37.527344 C 6.355469 37.851562 6.546875 38.132812 6.832031 38.285156 L 24.476562 47.878906 C 24.777344 48.042969 25.136719 48.039062 25.433594 47.875 L 43.175781 38.152344 C 43.457031 38 43.648438 37.71875 43.683594 37.398438 L 46.992188 10.277344 C 47.050781 9.808594 46.769531 9.363281 46.324219 9.207031 L 25.253906 2.050781 C 25.160156 2.019531 25.0625 2.003906 24.960938 2 Z M 24.9375 4.058594 L 44.910156 10.839844 L 41.761719 36.648438 L 24.953125 45.863281 L 8.238281 36.777344 L 5.089844 10.964844 Z M 25.035156 6 C 24.632812 5.984375 24.261719 6.214844 24.09375 6.578125 L 11.09375 34.578125 C 10.949219 34.886719 10.972656 35.25 11.15625 35.539062 C 11.339844 35.824219 11.660156 36 12 36 L 16.4375 36 C 16.828125 36 17.179688 35.773438 17.34375 35.421875 L 19.855469 30.007812 L 30.144531 30.007812 L 32.65625 35.421875 C 32.820312 35.773438 33.171875 36 33.5625 36 L 38 36 C 38.339844 36 38.660156 35.824219 38.84375 35.539062 C 39.027344 35.25 39.050781 34.886719 38.90625 34.578125 L 25.90625 6.578125 C 25.746094 6.238281 25.410156 6.011719 25.035156 6 Z M 25 9.371094 L 36.433594 34 L 34.199219 34 L 31.6875 28.585938 C 31.523438 28.234375 31.171875 28.007812 30.78125 28.007812 L 19.21875 28.007812 C 18.828125 28.007812 18.476562 28.234375 18.3125 28.585938 L 15.796875 34 L 13.566406 34 Z M 25.039062 15.5 C 24.632812 15.484375 24.261719 15.714844 24.089844 16.082031 L 20.164062 24.59375 C 20.023438 24.902344 20.046875 25.265625 20.234375 25.550781 C 20.417969 25.839844 20.734375 26.011719 21.074219 26.011719 L 28.925781 26.011719 C 29.265625 26.011719 29.582031 25.839844 29.765625 25.550781 C 29.953125 25.265625 29.976562 24.902344 29.832031 24.59375 L 25.90625 16.082031 C 25.75 15.738281 25.414062 15.515625 25.039062 15.5 Z M 25 18.886719 L 27.363281 24.011719 L 22.636719 24.011719 Z M 25 18.886719 "/>
</g>
</svg>
